CD_DA
CD_TEXT { LANGUAGE_MAP { 0:EN }
    LANGUAGE 0 {
        DISC_ID "A90DCE0E"
}}

//Track 1
TRACK AUDIO
    CD_TEXT { LANGUAGE 0 {
    }}
    AUDIOFILE "Pearl Jam - 01 - Fatal.wav" 00:00:00 03:37:65

//Track 2
TRACK AUDIO
    CD_TEXT { LANGUAGE 0 {
    }}
    AUDIOFILE "Pearl Jam - 01 - Fatal.wav" 03:37:65
    START
    AUDIOFILE "Pearl Jam - 02 - Other Side.wav" 00:00:00 04:02:70

//Track 3
TRACK AUDIO
    CD_TEXT { LANGUAGE 0 {
    }}
    AUDIOFILE "Pearl Jam - 02 - Other Side.wav" 04:02:70
    START
    AUDIOFILE "Pearl Jam - 03 - Hard to Imagine.wav" 00:00:00 04:34:22

//Track 4
TRACK AUDIO
    CD_TEXT { LANGUAGE 0 {
    }}
    AUDIOFILE "Pearl Jam - 03 - Hard to Imagine.wav" 04:34:22
    START
    AUDIOFILE "Pearl Jam - 04 - Footsteps.wav" 00:00:00 03:53:21

//Track 5
TRACK AUDIO
    CD_TEXT { LANGUAGE 0 {
    }}
    AUDIOFILE "Pearl Jam - 04 - Footsteps.wav" 03:53:21
    START
    AUDIOFILE "Pearl Jam - 05 - Wash.wav" 00:00:00 03:47:16

//Track 6
TRACK AUDIO
    CD_TEXT { LANGUAGE 0 {
    }}
    AUDIOFILE "Pearl Jam - 05 - Wash.wav" 03:47:16
    START
    AUDIOFILE "Pearl Jam - 06 - Dead Man.wav" 00:00:00 04:14:67

//Track 7
TRACK AUDIO
    CD_TEXT { LANGUAGE 0 {
    }}
    AUDIOFILE "Pearl Jam - 06 - Dead Man.wav" 04:14:67
    START
    AUDIOFILE "Pearl Jam - 07 - Strangest Tribe.wav" 00:00:00 03:47:56

//Track 8
TRACK AUDIO
    CD_TEXT { LANGUAGE 0 {
    }}
    AUDIOFILE "Pearl Jam - 07 - Strangest Tribe.wav" 03:47:56
    START
    AUDIOFILE "Pearl Jam - 08 - Drifting.wav" 00:00:00 02:51:41

//Track 9
TRACK AUDIO
    CD_TEXT { LANGUAGE 0 {
    }}
    AUDIOFILE "Pearl Jam - 08 - Drifting.wav" 02:51:41
    START
    AUDIOFILE "Pearl Jam - 09 - Let Me Sleep.wav" 00:00:00 02:57:63

//Track 10
TRACK AUDIO
    CD_TEXT { LANGUAGE 0 {
    }}
    AUDIOFILE "Pearl Jam - 09 - Let Me Sleep.wav" 02:57:63
    START
    AUDIOFILE "Pearl Jam - 10 - Last Kiss.wav" 00:00:00 03:15:48

//Track 11
TRACK AUDIO
    CD_TEXT { LANGUAGE 0 {
    }}
    AUDIOFILE "Pearl Jam - 10 - Last Kiss.wav" 03:15:48
    START
    AUDIOFILE "Pearl Jam - 11 - Sweet Lew.wav" 00:00:00 02:10:17

//Track 12
TRACK AUDIO
    CD_TEXT { LANGUAGE 0 {
    }}
    AUDIOFILE "Pearl Jam - 11 - Sweet Lew.wav" 02:10:17
    START
    AUDIOFILE "Pearl Jam - 12 - Dirty Frank.wav" 00:00:00 05:40:40

//Track 13
TRACK AUDIO
    CD_TEXT { LANGUAGE 0 {
    }}
    AUDIOFILE "Pearl Jam - 12 - Dirty Frank.wav" 05:40:40
    START
    AUDIOFILE "Pearl Jam - 13 - Brother.wav" 00:00:00 03:45:67

//Track 14
TRACK AUDIO
    CD_TEXT { LANGUAGE 0 {
    }}
    AUDIOFILE "Pearl Jam - 13 - Brother.wav" 03:45:67
    START
    AUDIOFILE "Pearl Jam - 14 - Bee Girl.wav" 00:00:00